<?xml version="1.0" standalone="no"?><svg xmlns="http://www.w3.org/2000/svg" viewBox="0 0 1440 320"><path fill="#a2d9ff" fill-opacity="1" d="M0,64L0,64L75.8,64L75.8,256L151.6,256L151.6,96L227.4,96L227.4,128L303.2,128L303.2,288L378.9,288L378.9,96L454.7,96L454.7,224L530.5,224L530.5,0L606.3,0L606.3,160L682.1,160L682.1,192L757.9,192L757.9,288L833.7,288L833.7,32L909.5,32L909.5,64L985.3,64L985.3,96L1061.1,96L1061.1,0L1136.8,0L1136.8,64L1212.6,64L1212.6,64L1288.4,64L1288.4,160L1364.2,160L1364.2,224L1440,224L1440,0L1364.2,0L1364.2,0L1288.4,0L1288.4,0L1212.6,0L1212.6,0L1136.8,0L1136.8,0L1061.1,0L1061.1,0L985.3,0L985.3,0L909.5,0L909.5,0L833.7,0L833.7,0L757.9,0L757.9,0L682.1,0L682.1,0L606.3,0L606.3,0L530.5,0L530.5,0L454.7,0L454.7,0L378.9,0L378.9,0L303.2,0L303.2,0L227.4,0L227.4,0L151.6,0L151.6,0L75.8,0L75.8,0L0,0L0,0Z"></path></svg>